<svg width="229" height="28" viewBox="0 0 229 28" fill="none" xmlns="http://www.w3.org/2000/svg">
<g clip-path="url(#clip0_2829_1970)">
<mask id="mask0_2829_1970" style="mask-type:alpha" maskUnits="userSpaceOnUse" x="0" y="2" width="25" height="24">
<path d="M24.2089 14C24.2089 7.37258 18.8363 2 12.2089 2C5.58145 2 0.208862 7.37258 0.208862 14C0.208862 20.6274 5.58145 26 12.2089 26C18.8363 26 24.2089 20.6274 24.2089 14Z" fill="white"/>
</mask>
<g mask="url(#mask0_2829_1970)">
<path d="M24.2089 2H0.208862V26H24.2089V2Z" fill="url(#paint0_linear_2829_1970)"/>
<path d="M29.9047 15.6907L17.4292 6.2897C15.7067 4.99169 13.2581 5.33582 11.9601 7.05833L2.55909 19.5338C1.26109 21.2563 1.60522 23.705 3.32773 25.003L15.8032 34.4039C17.5257 35.7019 19.9743 35.3578 21.2724 33.6353L30.6733 21.1598C31.9713 19.4373 31.6272 16.9887 29.9047 15.6907Z" fill="#451E37"/>
<path d="M11.3961 18.0625C11.4769 18.7206 11.903 19.3089 12.5806 19.6981C13.2582 20.0873 14.1318 20.2454 15.0093 20.1376C15.8867 20.0299 16.6962 19.6651 17.2595 19.1236C17.8228 18.5821 18.0939 17.9081 18.0131 17.25" fill="white"/>
<path d="M12.3276 14.6055C12.262 14.0711 11.8157 13.6862 11.3307 13.7457C10.8458 13.8052 10.5058 14.2867 10.5714 14.8211C10.6371 15.3555 11.0834 15.7404 11.5683 15.6809C12.0533 15.6213 12.3932 15.1399 12.3276 14.6055Z" fill="white"/>
<path d="M18.1164 14.0217C18.0507 13.4874 17.6049 13.1024 17.1205 13.1618C16.6361 13.2213 16.2966 13.7027 16.3622 14.2371C16.4278 14.7715 16.8737 15.1565 17.3581 15.097C17.8425 15.0375 18.182 14.5561 18.1164 14.0217Z" fill="white"/>
</g>
</g>
<path d="M45.2581 19.5H47.2741L43.0181 8.14H41.1301L36.8901 19.5H38.9061L39.7541 17.052H44.3941L45.2581 19.5ZM40.3461 15.388L42.0581 10.46H42.0901L43.8181 15.388H40.3461ZM48.9264 19.5H50.7184V7.724H48.9264V19.5ZM57.4617 11.58C56.4217 11.58 55.5577 11.948 54.9657 12.652V11.692H53.1737V22.668H54.9657V18.54H54.9817C55.5577 19.244 56.3897 19.628 57.4457 19.628C59.6217 19.628 61.2377 18.044 61.2377 15.628C61.2377 13.276 59.6217 11.58 57.4617 11.58ZM57.1737 17.996C55.8937 17.996 54.8857 17.052 54.8857 15.644C54.8857 14.252 55.8137 13.196 57.1577 13.196C58.4057 13.196 59.4137 14.14 59.4137 15.644C59.4137 17.02 58.4857 17.996 57.1737 17.996ZM67.5752 11.58C66.5192 11.58 65.5752 11.948 64.9192 12.684H64.9032V7.724H63.1112V19.5H64.9032V15.532C64.9032 13.996 65.7032 13.196 66.9992 13.196C68.0712 13.196 68.6952 13.74 68.6952 15.292V19.5H70.4872V14.828C70.4872 12.492 69.2872 11.58 67.5752 11.58ZM78.4017 11.692V12.636H78.3697C77.7937 11.948 76.9457 11.58 75.9537 11.58C73.8097 11.58 72.1937 13.276 72.1937 15.628C72.1937 18.044 73.8097 19.628 75.9697 19.628C77.0417 19.628 77.8897 19.212 78.4497 18.46H78.4817V19.5H80.1937V11.692H78.4017ZM76.2577 17.996C74.9297 17.996 74.0177 17.02 74.0177 15.644C74.0177 14.14 75.0097 13.196 76.2577 13.196C77.5377 13.196 78.4817 14.252 78.4817 15.644C78.4817 17.052 77.4737 17.996 76.2577 17.996ZM86.9602 19.5H90.6242C94.2722 19.5 96.4802 17.18 96.4802 13.836C96.4802 10.476 94.1762 8.14 90.5762 8.14H86.9602V19.5ZM88.8962 17.772V9.868H90.6082C92.8962 9.868 94.4802 11.532 94.4802 13.836C94.4802 16.092 92.9122 17.772 90.5122 17.772H88.8962ZM102.149 19.628C104.549 19.628 106.245 17.98 106.245 15.612C106.245 13.212 104.549 11.58 102.149 11.58C99.6855 11.58 98.0535 13.308 98.0535 15.612C98.0535 17.9 99.6855 19.628 102.149 19.628ZM102.149 17.996C100.805 17.996 99.8775 16.94 99.8775 15.612C99.8775 14.252 100.789 13.196 102.149 13.196C103.429 13.196 104.421 14.172 104.421 15.612C104.421 17.02 103.413 17.996 102.149 17.996ZM115.247 15.5C115.247 13.228 113.759 11.58 111.455 11.58C109.279 11.58 107.647 13.196 107.647 15.596C107.647 18.028 109.359 19.628 111.631 19.628C113.167 19.628 114.271 19.004 114.927 18.156L113.679 17.084C113.279 17.58 112.639 17.996 111.727 17.996C110.575 17.996 109.743 17.324 109.503 16.22H115.199C115.215 16.076 115.247 15.788 115.247 15.5ZM111.551 13.196C112.575 13.196 113.215 13.836 113.439 14.78H109.535C109.791 13.756 110.559 13.196 111.551 13.196Z" fill="#202127"/>
<path d="M162.209 25.666C163.492 25.666 164.542 24.616 164.542 23.3327H159.876C159.876 24.616 160.914 25.666 162.209 25.666ZM169.209 18.666V12.8327C169.209 9.25102 167.296 6.25268 163.959 5.45935V4.66602C163.959 3.69768 163.177 2.91602 162.209 2.91602C161.241 2.91602 160.459 3.69768 160.459 4.66602V5.45935C157.111 6.25268 155.209 9.23935 155.209 12.8327V18.666L153.704 20.171C152.969 20.906 153.482 22.166 154.521 22.166H169.886C170.924 22.166 171.449 20.906 170.714 20.171L169.209 18.666Z" fill="#202127"/>
<ellipse cx="169.209" cy="5.83333" rx="4.08333" ry="4.08333" fill="#FF92E2" stroke="white" stroke-width="2"/>
<g clip-path="url(#clip1_2829_1970)">
<path d="M221.709 14C221.709 14.4596 221.618 14.9148 221.442 15.3394C221.267 15.764 221.009 16.1499 220.684 16.4749C220.359 16.7999 219.973 17.0577 219.548 17.2336C219.124 17.4095 218.668 17.5 218.209 17.5C217.749 17.5 217.294 17.4095 216.869 17.2336C216.445 17.0577 216.059 16.7999 215.734 16.4749C215.409 16.1499 215.151 15.764 214.975 15.3394C214.799 14.9148 214.709 14.4596 214.709 14C214.709 13.0717 215.078 12.1815 215.734 11.5251C216.39 10.8687 217.281 10.5 218.209 10.5C219.137 10.5 220.027 10.8687 220.684 11.5251C221.34 12.1815 221.709 13.0717 221.709 14ZM208.709 14C208.709 13.7348 208.814 13.4804 209.002 13.2929C209.189 13.1054 209.444 13 209.709 13H211.709C211.974 13 212.228 13.1054 212.416 13.2929C212.604 13.4804 212.709 13.7348 212.709 14C212.709 14.2652 212.604 14.5196 212.416 14.7071C212.228 14.8946 211.974 15 211.709 15H209.709C209.444 15 209.189 14.8946 209.002 14.7071C208.814 14.5196 208.709 14.2652 208.709 14ZM223.709 14C223.709 13.7348 223.814 13.4804 224.002 13.2929C224.189 13.1054 224.444 13 224.709 13H226.709C226.974 13 227.228 13.1054 227.416 13.2929C227.604 13.4804 227.709 13.7348 227.709 14C227.709 14.2652 227.604 14.5196 227.416 14.7071C227.228 14.8946 226.974 15 226.709 15H224.709C224.444 15 224.189 14.8946 224.002 14.7071C223.814 14.5196 223.709 14.2652 223.709 14ZM223.623 18L225.037 19.414C225.219 19.6026 225.32 19.8552 225.318 20.1174C225.315 20.3796 225.21 20.6304 225.025 20.8158C224.839 21.0012 224.588 21.1064 224.326 21.1087C224.064 21.111 223.811 21.0102 223.623 20.828L222.209 19.414C222.027 19.2254 221.926 18.9728 221.928 18.7106C221.93 18.4484 222.036 18.1976 222.221 18.0122C222.406 17.8268 222.657 17.7216 222.919 17.7193C223.182 17.717 223.434 17.8178 223.623 18ZM211.209 7C211.396 6.81253 211.651 6.70721 211.916 6.70721C212.181 6.70721 212.435 6.81253 212.623 7L214.037 8.414C214.132 8.50625 214.209 8.61659 214.261 8.7386C214.313 8.8606 214.341 8.99182 214.342 9.1246C214.343 9.25738 214.318 9.38906 214.268 9.51195C214.217 9.63485 214.143 9.7465 214.049 9.84039C213.955 9.93429 213.844 10.0085 213.721 10.0588C213.598 10.1091 213.466 10.1344 213.333 10.1333C213.201 10.1321 213.069 10.1045 212.947 10.0521C212.825 9.99969 212.715 9.92351 212.623 9.828L211.209 8.414C211.021 8.22647 210.916 7.97216 210.916 7.707C210.916 7.44184 211.021 7.18753 211.209 7ZM218.209 19.5C218.474 19.5 218.728 19.6054 218.916 19.7929C219.104 19.9804 219.209 20.2348 219.209 20.5V22.5C219.209 22.7652 219.104 23.0196 218.916 23.2071C218.728 23.3946 218.474 23.5 218.209 23.5C217.944 23.5 217.689 23.3946 217.502 23.2071C217.314 23.0196 217.209 22.7652 217.209 22.5V20.5C217.209 20.2348 217.314 19.9804 217.502 19.7929C217.689 19.6054 217.944 19.5 218.209 19.5ZM218.209 4.5C218.474 4.5 218.728 4.60536 218.916 4.79289C219.104 4.98043 219.209 5.23478 219.209 5.5V7.5C219.209 7.76522 219.104 8.01957 218.916 8.20711C218.728 8.39464 218.474 8.5 218.209 8.5C217.944 8.5 217.689 8.39464 217.502 8.20711C217.314 8.01957 217.209 7.76522 217.209 7.5V5.5C217.209 5.23478 217.314 4.98043 217.502 4.79289C217.689 4.60536 217.944 4.5 218.209 4.5ZM225.037 7C225.224 7.18753 225.33 7.44184 225.33 7.707C225.33 7.97216 225.224 8.22647 225.037 8.414L223.623 9.828C223.531 9.92351 223.42 9.99969 223.298 10.0521C223.176 10.1045 223.045 10.1321 222.912 10.1333C222.779 10.1344 222.648 10.1091 222.525 10.0588C222.402 10.0085 222.29 9.93429 222.196 9.84039C222.103 9.7465 222.028 9.63485 221.978 9.51195C221.928 9.38906 221.902 9.25738 221.904 9.1246C221.905 8.99182 221.932 8.8606 221.985 8.7386C222.037 8.61659 222.113 8.50625 222.209 8.414L223.623 7C223.81 6.81253 224.065 6.70721 224.33 6.70721C224.595 6.70721 224.849 6.81253 225.037 7ZM214.037 18C214.224 18.1875 214.33 18.4418 214.33 18.707C214.33 18.9722 214.224 19.2265 214.037 19.414L212.623 20.828C212.434 21.0102 212.182 21.111 211.919 21.1087C211.657 21.1064 211.406 21.0012 211.221 20.8158C211.036 20.6304 210.93 20.3796 210.928 20.1174C210.926 19.8552 211.027 19.6026 211.209 19.414L212.623 18C212.81 17.8125 213.065 17.7072 213.33 17.7072C213.595 17.7072 213.849 17.8125 214.037 18Z" fill="#8B8B8B" fill-opacity="0.6"/>
</g>
<defs>
<linearGradient id="paint0_linear_2829_1970" x1="-11.7911" y1="14" x2="12.2089" y2="38" gradientUnits="userSpaceOnUse">
<stop stop-color="#FF92E2"/>
<stop offset="0.919792" stop-color="#932C6E"/>
</linearGradient>
<clipPath id="clip0_2829_1970">
<rect width="24" height="24" fill="white" transform="translate(0.208862 2)"/>
</clipPath>
<clipPath id="clip1_2829_1970">
<rect width="20" height="20" fill="white" transform="translate(208.209 4)"/>
</clipPath>
</defs>
</svg>
