<svg width="143" height="28" viewBox="0 0 143 28" fill="none" xmlns="http://www.w3.org/2000/svg">
<path d="M38.5286 22.403C37.3212 22.3981 36.1311 22.1158 35.0502 21.578C33.9692 21.0403 33.0262 20.2613 32.294 19.3013C31.5618 18.3413 31.06 17.2258 30.8273 16.0411C30.5945 14.8564 30.6371 13.634 30.9517 12.4683C31.2663 11.3027 31.8445 10.2249 32.6417 9.31809C33.4388 8.41132 34.4337 7.69985 35.5495 7.23856C36.6653 6.77726 37.8721 6.57846 39.0769 6.65755C40.2817 6.73664 41.4521 7.0915 42.498 7.6947C43.653 8.34903 44.5961 9.32072 45.2157 10.4947L41.9216 12.4382C41.622 11.8271 41.1495 11.3174 40.5627 10.9723C39.9396 10.6133 39.2313 10.4284 38.5122 10.4371C37.9814 10.4206 37.453 10.5138 36.9599 10.7107C36.4668 10.9077 36.0196 11.2042 35.6462 11.5817C34.9148 12.3829 34.5093 13.4286 34.5093 14.5135C34.5093 15.5984 34.9148 16.6441 35.6462 17.4453C36.0212 17.8202 36.4689 18.1143 36.9617 18.3098C37.4546 18.5052 37.9822 18.5978 38.5122 18.5818C39.2376 18.5947 39.9534 18.4157 40.5874 18.063C41.1787 17.7312 41.6533 17.225 41.9463 16.6135L45.298 18.5241C44.6483 19.7119 43.6782 20.6935 42.498 21.3571C41.2984 22.0548 39.9328 22.4162 38.5451 22.403H38.5286Z" fill="#451E37"/>
<path d="M55.172 6.6491C55.9229 6.62211 56.671 6.755 57.3667 7.03895C58.0624 7.3229 58.6898 7.75143 59.2073 8.29616C59.7678 8.90633 60.202 9.62145 60.4847 10.4003C60.7674 11.1791 60.893 12.0062 60.8544 12.8338V21.9915H56.9262V13.3115C56.9474 12.8968 56.8855 12.4821 56.744 12.0918C56.6026 11.7014 56.3845 11.3433 56.1026 11.0385C55.8174 10.7601 55.4779 10.5433 55.1053 10.4016C54.7327 10.26 54.3349 10.1964 53.9367 10.215C53.4923 10.192 53.048 10.2638 52.6334 10.4257C52.2188 10.5875 51.8434 10.8357 51.532 11.1538C50.8962 11.9268 50.5808 12.9142 50.6509 13.9126V21.9668H46.7968V1.08203H50.6509V8.76557C51.565 7.36557 53.0555 6.67383 55.1061 6.67383L55.172 6.6491Z" fill="#451E37"/>
<path d="M67.5086 21.9829H63.6545V7.06054H67.5086V21.9829ZM65.5733 5.2735C64.9499 5.2671 64.3537 5.01718 63.912 4.57708C63.4704 4.13699 63.2183 3.54163 63.2098 2.91821C63.2113 2.61095 63.2739 2.30705 63.3941 2.02426C63.5143 1.74148 63.6896 1.48547 63.9098 1.27115C64.1203 1.04494 64.3753 0.864543 64.6586 0.741269C64.942 0.617995 65.2478 0.554498 65.5568 0.554688C65.8652 0.558774 66.1696 0.624188 66.4524 0.7472C66.7352 0.870212 66.9907 1.04836 67.2039 1.27115C67.6456 1.70618 67.8973 2.29829 67.9039 2.91821C67.8952 3.54589 67.6398 4.1449 67.1929 4.58568C66.7459 5.02646 66.1434 5.27356 65.5156 5.2735H65.5733Z" fill="#451E37"/>
<path d="M87.1168 6.64945C87.8816 6.60832 88.6462 6.73439 89.3573 7.01884C90.0684 7.30329 90.709 7.73928 91.2344 8.29651C92.3075 9.53142 92.8596 11.1345 92.7745 12.7683V21.9589H88.9203V13.04C88.9687 12.2851 88.7338 11.5392 88.2615 10.9483C88.0264 10.6957 87.7384 10.4983 87.4181 10.3702C87.0977 10.242 86.753 10.1863 86.4086 10.2071C86.0248 10.1865 85.6414 10.2537 85.2875 10.4035C84.9336 10.5534 84.6185 10.7819 84.3662 11.0718C83.8401 11.7841 83.5807 12.6584 83.6333 13.5424V21.9259H79.7792V13.0071C79.8236 12.2527 79.5892 11.5081 79.1204 10.9153C78.8853 10.6628 78.5973 10.4653 78.2769 10.3372C77.9566 10.209 77.6118 10.1534 77.2674 10.1742C76.8832 10.1564 76.5 10.2257 76.1463 10.3769C75.7927 10.5281 75.4777 10.7572 75.225 11.0471C74.6813 11.7519 74.4094 12.6289 74.4592 13.5177V21.9012H70.605V6.98713H74.4592V8.56829C74.9148 7.90808 75.5334 7.37687 76.2548 7.02623C76.9763 6.67559 77.7762 6.51745 78.5768 6.56712C79.3878 6.51098 80.1984 6.68246 80.9172 7.06222C81.6359 7.44198 82.2344 8.01493 82.645 8.71652C83.1378 8.00497 83.8064 7.43304 84.5856 7.05639C85.3649 6.67974 86.2284 6.51121 87.0921 6.56712L87.1168 6.64945Z" fill="#451E37"/>
<path d="M103.909 6.64859C104.659 6.62213 105.407 6.75527 106.103 7.03919C106.799 7.32311 107.426 7.75134 107.944 8.29565C108.504 8.90582 108.938 9.62094 109.221 10.3998C109.504 11.1786 109.63 12.0057 109.591 12.8333V21.991H105.729V13.311C105.75 12.8963 105.688 12.4816 105.546 12.0913C105.405 11.7009 105.187 11.3428 104.905 11.038C104.62 10.7596 104.28 10.5428 103.908 10.4011C103.535 10.2594 103.137 10.1959 102.739 10.2145C102.295 10.1915 101.85 10.2633 101.436 10.4251C101.021 10.587 100.646 10.8352 100.334 11.1533C99.6986 11.9263 99.3832 12.9136 99.4533 13.9121V21.9663H95.6321V7.05211H99.4862V8.69917C100.4 7.29917 101.883 6.60742 103.942 6.60742L103.909 6.64859Z" fill="#451E37"/>
<path d="M115.586 13.1222H123.212C123.046 12.2415 122.573 11.448 121.878 10.8822C121.199 10.3609 120.362 10.0877 119.506 10.1081C118.581 10.081 117.674 10.3717 116.937 10.9317C116.244 11.4809 115.766 12.2563 115.586 13.1222ZM126.918 16.1034H115.652C116.146 17.9728 117.554 18.9116 119.86 18.9116C120.498 18.9511 121.135 18.8362 121.719 18.5767C122.302 18.3173 122.814 17.9208 123.212 17.4211L126.317 19.2082C125.596 20.2545 124.618 21.0978 123.477 21.6573C122.337 22.2169 121.071 22.4739 119.803 22.4035C118.711 22.4528 117.622 22.2796 116.6 21.8945C115.577 21.5094 114.644 20.9204 113.857 20.1634C112.43 18.6378 111.637 16.6273 111.637 14.5387C111.637 12.4501 112.43 10.4395 113.857 8.914C114.594 8.16104 115.48 7.57056 116.458 7.18053C117.437 6.79051 118.486 6.60955 119.539 6.64929C120.552 6.60449 121.563 6.78433 122.498 7.17586C123.433 7.56739 124.271 8.16092 124.95 8.914C126.381 10.4245 127.155 12.4418 127.099 14.5222C127.089 15.0523 127.04 15.5808 126.951 16.1034H126.918Z" fill="#451E37"/>
<path d="M135.161 17.0911L138.456 7.06055H142.573L137.138 21.9829C136.578 23.8055 135.502 25.4271 134.041 26.6523C132.652 27.6481 130.95 28.1074 129.248 27.9453V24.4123C130.123 24.4783 130.994 24.246 131.719 23.7535C132.417 23.1807 132.928 22.412 133.185 21.5465L127.058 7.10171H131.274L135.153 17.1323L135.161 17.0911Z" fill="#451E37"/>
<path fill-rule="evenodd" clip-rule="evenodd" d="M3.33655 6.61585C3.31071 6.85019 3.23113 7.07541 3.104 7.27396C2.97687 7.47251 2.80562 7.63904 2.6036 7.76057C2.54101 7.77238 2.47678 7.77238 2.4142 7.76057C2.32717 7.76341 2.24215 7.73412 2.17537 7.67824L2.10947 7.62883C1.93523 7.42253 1.8468 7.15721 1.86242 6.88763C1.86242 6.88763 1.86242 6.82175 1.86242 6.78881C1.86307 6.51777 1.93303 6.25138 2.06564 6.01499C2.19825 5.7786 2.38911 5.58005 2.62008 5.43821C2.96596 5.28998 3.27066 5.52882 3.36125 5.97353C3.37017 6.07215 3.37017 6.17136 3.36125 6.26998C3.37338 6.37395 3.37338 6.47897 3.36125 6.58293L3.33655 6.61585ZM1.03889 4.74647C0.775886 4.91356 0.561378 5.14678 0.41685 5.42283C0.272321 5.69888 0.202843 6.00805 0.215365 6.31939V8.85588C0.215365 9.53117 0.577718 9.94292 1.03889 9.76998L10.8471 5.93055V0.554688L1.03889 4.74647Z" fill="#FF92E2"/>
<path fill-rule="evenodd" clip-rule="evenodd" d="M5.91414 9.15223L0.783543 11.1122C0.600022 11.2238 0.450217 11.383 0.350139 11.573C0.250061 11.763 0.203465 11.9766 0.215306 12.1911V15.4852C0.215306 15.9628 0.470602 16.2593 0.783543 16.1522L5.91414 14.3816C6.10946 14.2711 6.27048 14.1089 6.37946 13.9127C6.48844 13.7165 6.54116 13.4941 6.53179 13.2699V9.85221C6.53179 9.31692 6.25179 9.02047 5.91414 9.15223Z" fill="#FF92E2"/>
<path fill-rule="evenodd" clip-rule="evenodd" d="M10.847 7.26562V12.6432L9.14231 13.228C8.63996 13.4009 8.23643 12.9644 8.23643 12.248V9.56325C8.22415 9.23242 8.30194 8.90445 8.46148 8.61437C8.62103 8.32429 8.85634 8.08299 9.14231 7.9162L10.847 7.27382V7.26562Z" fill="#FF92E2"/>
<path fill-rule="evenodd" clip-rule="evenodd" d="M3.33655 19.3639C3.31557 19.59 3.23723 19.807 3.10898 19.9944C2.98072 20.1817 2.80677 20.3332 2.60359 20.4346C2.54072 20.4427 2.47708 20.4427 2.4142 20.4346C2.3263 20.4214 2.24369 20.3844 2.17537 20.3275L2.10947 20.2698C1.9377 20.0557 1.84987 19.7864 1.86242 19.5122C1.86242 19.5122 1.86242 19.4464 1.86242 19.4134C1.85861 19.1504 1.92727 18.8913 2.06092 18.6647C2.19456 18.4381 2.38803 18.2526 2.62008 18.1287C2.96596 18.0134 3.27066 18.2686 3.36125 18.7298C3.37016 18.8284 3.37016 18.9278 3.36125 19.0264C3.37338 19.1303 3.37338 19.2354 3.36125 19.3393L3.33655 19.3639ZM10.8389 13.9863L1.03065 17.2805C0.769323 17.431 0.554326 17.6503 0.409108 17.9146C0.263889 18.1789 0.194024 18.478 0.207121 18.7793V21.324C0.207121 21.9992 0.569474 22.444 1.03065 22.304L10.8389 19.3557V13.9863Z" fill="#FF92E2"/>
<path fill-rule="evenodd" clip-rule="evenodd" d="M20.8975 17.3719L15.7751 15.6425C15.4293 15.5354 15.1575 15.8402 15.1575 16.3343V19.7519C15.1429 19.9737 15.1936 20.1948 15.3034 20.388C15.4131 20.5812 15.5772 20.738 15.7751 20.839L20.8975 22.3789C21.2104 22.4695 21.4657 22.1649 21.4657 21.6872V18.3931C21.4785 18.1819 21.4321 17.9713 21.3317 17.7851C21.2313 17.5989 21.0809 17.4444 20.8975 17.339V17.3719Z" fill="#FFB4EF"/>
<path fill-rule="evenodd" clip-rule="evenodd" d="M10.8422 13.9863V19.3557L12.5469 19.8663C13.041 20.0145 13.4528 19.5616 13.4528 18.8451V16.2016C13.4746 15.8693 13.4009 15.5376 13.2404 15.2457C13.0799 14.9539 12.8392 14.7141 12.5469 14.5546L10.8422 13.9863Z" fill="#FFB4EF"/>
<path fill-rule="evenodd" clip-rule="evenodd" d="M19.5963 13.9789C19.5792 14.0002 19.5599 14.0195 19.5387 14.0366C19.4691 14.0941 19.3818 14.1261 19.2916 14.1272C19.2294 14.1428 19.1643 14.1428 19.1022 14.1272C18.8973 14.0185 18.7225 13.8609 18.5932 13.6683C18.4639 13.4758 18.3841 13.2544 18.361 13.0237C18.3525 12.9195 18.3525 12.8149 18.361 12.7107C18.3521 12.6148 18.3521 12.5183 18.361 12.4224C18.4434 11.9695 18.748 11.7143 19.1022 11.846C19.3327 11.9801 19.5241 12.1724 19.657 12.4036C19.79 12.6348 19.8599 12.8969 19.8598 13.1636V13.2707C19.8649 13.5317 19.7708 13.7848 19.5963 13.9789ZM17.4139 13.1966L17.348 13.2542C17.2747 13.3107 17.1853 13.3425 17.0927 13.3448C17.0306 13.3605 16.9655 13.3605 16.9034 13.3448C16.694 13.2348 16.5148 13.0752 16.3813 12.88C16.2478 12.6847 16.1641 12.4598 16.1375 12.2248C16.1293 12.1179 16.1293 12.0106 16.1375 11.9037C16.1286 11.805 16.1286 11.7058 16.1375 11.6072C16.2281 11.146 16.541 10.8907 16.9034 11.0307C17.1389 11.1647 17.3346 11.3589 17.4706 11.5932C17.6066 11.8276 17.678 12.0939 17.6775 12.3648C17.6812 12.4004 17.6812 12.4363 17.6775 12.4719C17.6966 12.7469 17.608 13.0186 17.4304 13.2295L17.4139 13.1966ZM20.6586 11.0225L10.8408 7.27539V12.6448L20.6586 16.0378C21.1116 16.1942 21.4822 15.7743 21.4822 15.0907V12.5542C21.5015 12.2475 21.4346 11.9415 21.2891 11.6708C21.1435 11.4001 20.9252 11.1756 20.6586 11.0225Z" fill="#FFB4EF"/>
<path fill-rule="evenodd" clip-rule="evenodd" d="M20.8975 4.85349L15.7752 2.66292C15.4293 2.52292 15.1575 2.80295 15.1575 3.3053V6.72292C15.1472 6.95063 15.1993 7.17683 15.3082 7.37711C15.417 7.57739 15.5785 7.74415 15.7752 7.85939L20.8975 9.86056C21.2104 9.98409 21.4657 9.69588 21.4657 9.21824V5.92412C21.4694 5.71215 21.4193 5.50273 21.3199 5.31547C21.2205 5.12821 21.0751 4.96922 20.8975 4.85349Z" fill="#FFB4EF"/>
<path fill-rule="evenodd" clip-rule="evenodd" d="M10.8422 0.554688V5.92412L12.5469 6.59117C13.041 6.78882 13.4528 6.36881 13.4528 5.65234V2.95938C13.4549 2.63034 13.3728 2.30625 13.2143 2.01793C13.0557 1.72961 12.8259 1.48668 12.5469 1.31232L10.8422 0.554688Z" fill="#FFB4EF"/>
</svg>
