<svg width="31" height="32" viewBox="0 0 31 32" fill="none" xmlns="http://www.w3.org/2000/svg">
<g opacity="0.5">
<g opacity="0.85">
<path fill-rule="evenodd" clip-rule="evenodd" d="M4.98414 8.65881C4.94723 8.99358 4.83354 9.31532 4.65193 9.59896C4.47032 9.8826 4.22567 10.1205 3.93707 10.2941C3.84766 10.311 3.75591 10.311 3.6665 10.2941C3.54218 10.2982 3.42071 10.2563 3.32531 10.1765L3.23118 10.1059C2.98225 9.81121 2.85593 9.43218 2.87825 9.04706C2.87825 9.04706 2.87825 8.95295 2.87825 8.90589C2.87918 8.51869 2.97912 8.13814 3.16856 7.80044C3.358 7.46274 3.63066 7.17909 3.96062 6.97646C4.45474 6.7647 4.89002 7.1059 5.01943 7.7412C5.03217 7.88209 5.03217 8.02382 5.01943 8.16471C5.03676 8.31323 5.03676 8.46326 5.01943 8.61177L4.98414 8.65881ZM15.7018 0.0117762L1.70178 5.98827C1.32605 6.22696 1.01961 6.56013 0.813142 6.95449C0.606673 7.34885 0.507419 7.79052 0.525308 8.23529V11.8588C0.525308 12.8236 1.04295 13.4118 1.70178 13.1647L15.7135 7.68239V0L15.7018 0.0117762Z" fill="white"/>
<path fill-rule="evenodd" clip-rule="evenodd" d="M8.66645 12.2828L1.33702 15.0828C1.07485 15.2421 0.860841 15.4696 0.717872 15.741C0.574904 16.0124 0.508337 16.3176 0.525253 16.6239V21.3298C0.525253 22.0122 0.889961 22.4357 1.33702 22.2828L8.66645 19.7533C8.94548 19.5955 9.1755 19.3637 9.33119 19.0834C9.48688 18.8032 9.56219 18.4854 9.5488 18.1651V13.2827C9.5488 12.518 9.1488 12.0945 8.66645 12.2828Z" fill="white"/>
<path fill-rule="evenodd" clip-rule="evenodd" d="M15.7134 9.58789V17.2702L13.2781 18.1055C12.5605 18.3526 11.984 17.7291 11.984 16.7055V12.8702C11.9665 12.3976 12.0776 11.9291 12.3055 11.5147C12.5334 11.1003 12.8696 10.7556 13.2781 10.5173L15.7134 9.5996V9.58789Z" fill="white"/>
<path fill-rule="evenodd" clip-rule="evenodd" d="M4.98415 26.8708C4.95419 27.1938 4.84228 27.5037 4.65905 27.7714C4.47582 28.039 4.22732 28.2555 3.93708 28.4003C3.84725 28.4118 3.75634 28.4118 3.66651 28.4003C3.54094 28.3814 3.42292 28.3285 3.32533 28.2473L3.23119 28.1649C2.9858 27.859 2.86033 27.4743 2.87826 27.0826C2.87826 27.0826 2.87826 26.9885 2.87826 26.9414C2.87281 26.5657 2.97091 26.1956 3.16182 25.8718C3.35274 25.5481 3.62913 25.2832 3.96063 25.1061C4.45475 24.9414 4.89003 25.3061 5.01945 25.9649C5.03218 26.1058 5.03218 26.2477 5.01945 26.3885C5.03677 26.5371 5.03677 26.6871 5.01945 26.8356L4.98415 26.8708ZM15.7018 19.1885L1.69001 23.8944C1.31669 24.1094 1.00955 24.4228 0.802095 24.8003C0.594641 25.1779 0.494833 25.6051 0.513543 26.0355V29.6708C0.513543 30.6355 1.03119 31.2709 1.69001 31.0709L15.7018 26.859V19.1885Z" fill="white"/>
</g>
<path fill-rule="evenodd" clip-rule="evenodd" d="M30.0665 24.0237L22.7489 21.553C22.2548 21.4001 21.8665 21.8354 21.8665 22.5413V27.4237C21.8457 27.7404 21.9181 28.0563 22.0749 28.3323C22.2317 28.6083 22.4661 28.8323 22.7489 28.9765L30.0665 31.1765C30.5135 31.306 30.8783 30.8707 30.8783 30.1883V25.4825C30.8965 25.1808 30.8302 24.8799 30.6868 24.6139C30.5434 24.3478 30.3285 24.1271 30.0665 23.9765V24.0237Z" fill="white"/>
<path fill-rule="evenodd" clip-rule="evenodd" d="M15.7018 19.1885V26.859L18.1371 27.5884C18.8429 27.8002 19.4312 27.1531 19.4312 26.1296V22.3532C19.4624 21.8784 19.3571 21.4046 19.1278 20.9876C18.8985 20.5707 18.5547 20.2281 18.1371 20.0002L15.7018 19.1885Z" fill="white"/>
<path fill-rule="evenodd" clip-rule="evenodd" d="M28.2077 19.1771C28.1833 19.2074 28.1557 19.235 28.1253 19.2594C28.0259 19.3416 27.9013 19.3873 27.7723 19.3888C27.6835 19.4112 27.5906 19.4112 27.5018 19.3888C27.2091 19.2336 26.9594 19.0084 26.7746 18.7334C26.5899 18.4584 26.476 18.142 26.443 17.8124C26.4309 17.6636 26.4309 17.5141 26.443 17.3653C26.4303 17.2284 26.4303 17.0905 26.443 16.9535C26.5606 16.3065 26.9959 15.9418 27.5018 16.1301C27.8312 16.3216 28.1045 16.5963 28.2944 16.9266C28.4844 17.2569 28.5842 17.6313 28.5841 18.0124V18.1653C28.5914 18.5381 28.4569 18.8997 28.2077 19.1771ZM25.09 18.0594L24.9959 18.1418C24.8911 18.2225 24.7634 18.2679 24.6312 18.2712C24.5424 18.2936 24.4494 18.2936 24.3606 18.2712C24.0615 18.114 23.8055 17.886 23.6147 17.6071C23.424 17.3282 23.3045 17.0069 23.2665 16.6712C23.2548 16.5185 23.2548 16.3651 23.2665 16.2124C23.2538 16.0715 23.2538 15.9297 23.2665 15.7888C23.3959 15.13 23.843 14.7653 24.3606 14.9653C24.697 15.1568 24.9767 15.4341 25.1709 15.7689C25.3652 16.1038 25.4672 16.4841 25.4665 16.8712C25.4718 16.9221 25.4718 16.9733 25.4665 17.0241C25.4937 17.417 25.3672 17.8052 25.1136 18.1065L25.09 18.0594ZM29.7253 14.9536L15.7135 9.60059V17.2712L29.7253 22.1182C30.3724 22.3418 30.9018 21.7418 30.9018 20.7654V17.1418C30.9294 16.7036 30.8338 16.2664 30.6259 15.8797C30.418 15.493 30.106 15.1722 29.7253 14.9536Z" fill="white"/>
<path fill-rule="evenodd" clip-rule="evenodd" d="M30.0665 6.14073L22.7489 3.01135C22.2548 2.81135 21.8665 3.21138 21.8665 3.92903V8.81134C21.8518 9.13665 21.9262 9.45978 22.0817 9.7459C22.2372 10.032 22.4679 10.2702 22.7489 10.4349L30.0665 13.2937C30.5136 13.4702 30.8783 13.0584 30.8783 12.3761V7.6702C30.8835 7.36739 30.8119 7.06821 30.6699 6.8007C30.5279 6.53319 30.3203 6.30606 30.0665 6.14073Z" fill="white"/>
<path fill-rule="evenodd" clip-rule="evenodd" d="M15.7018 0V7.67061L18.1371 8.62355C18.8429 8.9059 19.4312 8.30589 19.4312 7.28236V3.43527C19.4343 2.96522 19.317 2.50223 19.0905 2.09035C18.8639 1.67847 18.5357 1.33142 18.1371 1.08233L15.7018 0Z" fill="white"/>
</g>
</svg>
