<svg width="177" height="29" viewBox="0 0 177 29" fill="none" xmlns="http://www.w3.org/2000/svg">
<path d="M16.494 18.8178C16.494 16.6666 15.2334 14.8084 13.4099 13.9429V10.747C13.4099 10.456 13.3077 10.1745 13.1188 9.95286L10.1812 6.46974C10.0578 6.32325 9.88242 6.25 9.70894 6.25C9.53546 6.25 9.36005 6.32325 9.23668 6.46974L6.29906 9.95286C6.11145 10.175 6.00836 10.4563 6.008 10.747V13.9429C4.18452 14.8084 2.92389 16.6666 2.92389 18.8178H5.94054C5.8962 18.9565 5.87307 19.1069 5.87307 19.2765C5.87307 19.7025 6.01957 20.1189 6.28557 20.4485C6.5027 20.7181 6.79026 20.9222 7.11635 21.0383C7.56162 22.0792 8.5736 22.75 9.70894 22.75C10.2699 22.75 10.8134 22.5842 11.278 22.272C11.7329 21.9674 12.0856 21.5414 12.2996 21.0383C12.6256 20.9229 12.9131 20.7194 13.1304 20.4504C13.3967 20.1178 13.5422 19.7046 13.5429 19.2784C13.5429 19.1165 13.5217 18.9623 13.4831 18.8197L16.494 18.8178ZM9.70894 11.4159C9.95105 11.4208 10.1816 11.5205 10.3511 11.6935C10.5206 11.8664 10.6155 12.099 10.6155 12.3411C10.6155 12.5833 10.5206 12.8158 10.3511 12.9888C10.1816 13.1618 9.95105 13.2614 9.70894 13.2664C9.46682 13.2614 9.23629 13.1618 9.0668 12.9888C8.89732 12.8158 8.8024 12.5833 8.8024 12.3411C8.8024 12.099 8.89732 11.8664 9.0668 11.6935C9.23629 11.5205 9.46682 11.4208 9.70894 11.4159ZM11.9468 19.7468C11.8466 19.8047 11.731 19.8278 11.6172 19.8124L11.2414 19.7661L11.1874 20.1401C11.0833 20.8706 10.4472 21.4219 9.70894 21.4219C8.97068 21.4219 8.33458 20.8706 8.23049 20.1401L8.17652 19.7642L7.80064 19.8124C7.68637 19.826 7.57076 19.8023 7.47103 19.7449C7.30333 19.6485 7.19924 19.4693 7.19924 19.2746C7.19924 19.0703 7.31297 18.9006 7.48067 18.8158H11.9391C12.1088 18.9026 12.2206 19.0722 12.2206 19.2746C12.2186 19.4712 12.1145 19.6524 11.9468 19.7468Z" fill="#F1F2F2"/>
<path d="M35.7289 14.61V14.574C36.7189 13.998 37.3309 12.99 37.3309 11.802C37.3309 9.678 35.5489 8.49 33.3529 8.49C31.5349 8.49 30.1129 9.408 29.5369 10.686L31.4989 11.73C31.8589 11.1 32.3989 10.704 33.2989 10.704C34.2169 10.704 34.9369 11.298 34.9369 12.198C34.9369 13.008 34.4329 13.656 33.3349 13.656H32.2369V15.654H33.1369C34.4869 15.654 35.1709 16.41 35.1709 17.292C35.1709 18.336 34.3249 18.948 33.3349 18.948C32.2189 18.948 31.5349 18.426 31.2109 17.544L29.0869 18.426C29.6809 19.992 31.3189 21.144 33.5149 21.144C35.9089 21.144 37.6909 19.776 37.6909 17.634C37.6909 16.194 36.9169 15.168 35.7289 14.61ZM44.0648 21H46.4768V18.984H48.1328V16.878H46.4768V8.634H44.4968L38.8268 17.418V18.984H44.0648V21ZM41.4908 17.004L44.2448 12.576V17.004H41.4908ZM60.9833 7.752V13.206H60.9293C60.2813 12.45 59.3633 12.072 58.2833 12.072C55.9253 12.072 54.1433 13.962 54.1433 16.626C54.1433 19.344 55.9253 21.144 58.3553 21.144C59.5253 21.144 60.4433 20.712 61.0553 19.938H61.0913V21H63.3413V7.752H60.9833ZM58.7873 19.038C57.4733 19.038 56.5373 18.066 56.5373 16.644C56.5373 15.132 57.5273 14.178 58.7873 14.178C60.1373 14.178 61.1093 15.24 61.1093 16.644C61.1093 18.084 60.0833 19.038 58.7873 19.038ZM72.0031 12.216V13.206H71.9491C71.3191 12.45 70.4191 12.072 69.3751 12.072C67.0171 12.072 65.2351 13.962 65.2351 16.626C65.2351 19.344 66.9991 21.144 69.4291 21.144C70.5631 21.144 71.4631 20.712 72.0571 19.938H72.1111V21H74.3431V12.216H72.0031ZM69.8611 19.038C68.5471 19.038 67.6111 18.066 67.6111 16.644C67.6111 15.132 68.6191 14.178 69.8791 14.178C71.1571 14.178 72.0931 15.24 72.0931 16.644C72.0931 18.084 71.0851 19.038 69.8611 19.038ZM82.4147 12.216L80.3987 17.652H80.3807L78.2207 12.216H75.7727L79.2647 20.46L77.7167 24.564H80.1287L84.8627 12.216H82.4147ZM88.9909 21.144C91.2949 21.144 92.4109 19.974 92.4109 18.408C92.4109 16.68 91.2949 16.266 89.3869 15.564C88.5229 15.24 88.0549 14.988 88.0549 14.628C88.0549 14.16 88.5409 13.962 88.9189 13.962C89.5669 13.962 90.3409 14.25 91.0249 14.898L92.1589 13.17C91.1689 12.396 90.1789 12.072 88.9549 12.072C87.1549 12.072 85.7869 13.116 85.7869 14.7C85.7869 16.392 87.0469 17.076 88.4869 17.562C89.6389 17.922 90.0889 18.12 90.0889 18.534C90.0889 18.966 89.6929 19.254 89.0089 19.254C88.0549 19.254 87.2989 18.912 86.5789 18.228L85.4269 19.866C86.3989 20.694 87.5869 21.144 88.9909 21.144ZM100.168 14.934C100.96 14.934 101.626 14.304 101.626 13.512C101.626 12.72 100.96 12.072 100.168 12.072C99.3577 12.072 98.7097 12.72 98.7097 13.512C98.7097 14.304 99.3577 14.934 100.168 14.934ZM100.168 21.144C100.96 21.144 101.626 20.514 101.626 19.722C101.626 18.93 100.96 18.282 100.168 18.282C99.3577 18.282 98.7097 18.93 98.7097 19.722C98.7097 20.514 99.3577 21.144 100.168 21.144ZM110.863 21H113.329V8.634H111.367L107.623 11.316L108.793 13.134L110.863 11.586V21ZM119.019 18.768V18.732L121.359 16.32C122.961 14.664 123.411 13.566 123.411 12.162C123.411 9.858 121.539 8.49 119.487 8.49C117.417 8.49 116.103 9.516 115.383 10.83L117.147 12.09C117.687 11.19 118.425 10.758 119.289 10.758C120.261 10.758 120.945 11.478 120.945 12.432C120.945 13.422 120.279 14.268 119.289 15.33L115.437 19.398L115.473 21H123.537V18.768H119.019ZM135.506 12.072C134.39 12.072 133.364 12.468 132.644 13.278H132.608V7.752H130.25V21H132.608V16.536C132.608 14.97 133.418 14.178 134.678 14.178C135.794 14.178 136.388 14.7 136.388 16.32V21H138.746V15.726C138.746 13.044 137.396 12.072 135.506 12.072ZM145.185 21.144C147.921 21.144 149.865 19.308 149.865 16.608C149.865 13.908 147.921 12.072 145.185 12.072C142.395 12.072 140.523 13.98 140.523 16.608C140.523 19.236 142.395 21.144 145.185 21.144ZM145.185 19.038C143.853 19.038 142.899 17.976 142.899 16.608C142.899 15.222 143.817 14.178 145.185 14.178C146.499 14.178 147.471 15.168 147.471 16.608C147.471 18.03 146.463 19.038 145.185 19.038ZM157.472 12.216V16.482C157.472 18.174 156.554 19.038 155.528 19.038C154.43 19.038 153.944 18.498 153.944 16.878V12.216H151.604V17.508C151.604 20.19 152.936 21.144 154.826 21.144C155.816 21.144 156.77 20.73 157.436 19.92H157.472V21H159.83V12.216H157.472ZM167.177 12.072C166.133 12.072 165.179 12.576 164.513 13.512H164.495V12.216H162.137V21H164.495V16.914C164.495 15.618 165.287 14.628 166.745 14.628C166.871 14.628 167.123 14.628 167.357 14.646V12.09C167.321 12.072 167.249 12.072 167.177 12.072ZM171.731 21.144C174.035 21.144 175.151 19.974 175.151 18.408C175.151 16.68 174.035 16.266 172.127 15.564C171.263 15.24 170.795 14.988 170.795 14.628C170.795 14.16 171.281 13.962 171.659 13.962C172.307 13.962 173.081 14.25 173.765 14.898L174.899 13.17C173.909 12.396 172.919 12.072 171.695 12.072C169.895 12.072 168.527 13.116 168.527 14.7C168.527 16.392 169.787 17.076 171.227 17.562C172.379 17.922 172.829 18.12 172.829 18.534C172.829 18.966 172.433 19.254 171.749 19.254C170.795 19.254 170.039 18.912 169.319 18.228L168.167 19.866C169.139 20.694 170.327 21.144 171.731 21.144Z" fill="#F1F2F2"/>
</svg>
