<svg width="101" height="156" viewBox="0 0 101 156" fill="none" xmlns="http://www.w3.org/2000/svg">
<path fill-rule="evenodd" clip-rule="evenodd" d="M47.0574 0.521292L94.1671 82.1176C98.8258 90.1867 100.803 99.5625 99.8481 109.059C98.8934 118.556 95.0499 127.748 88.8035 135.471C82.5572 143.195 74.1887 149.103 64.7561 152.45C55.3236 155.797 45.2507 156.432 35.8112 154.274C26.3718 152.117 17.9898 147.263 11.7251 140.328C5.46047 133.393 1.59455 124.687 0.616243 115.312C-0.362066 105.937 1.59117 96.3137 6.22896 87.6588C10.8668 79.0039 17.9808 71.7063 26.6715 66.6887C38.3171 59.9531 47.0047 49.2023 50.8268 36.7967C54.6489 24.391 53.2933 11.3445 47.0574 0.521292Z" fill="#FF92E2"/>
</svg>
