<svg width="14" height="14" viewBox="0 0 14 14" fill="none" xmlns="http://www.w3.org/2000/svg">
<path d="M5.5652 0.35074C5.64654 0.449588 5.69638 0.570559 5.70827 0.698023C5.72015 0.825488 5.69354 0.953587 5.63187 1.06577C5.15006 1.95037 4.89845 2.94193 4.90017 3.94922C4.90017 7.3002 7.63195 10.0136 10.9988 10.0136C11.4379 10.0136 11.8655 9.96781 12.2763 9.8803C12.4023 9.85303 12.5334 9.86346 12.6535 9.9103C12.7735 9.95713 12.8771 10.0383 12.9513 10.1436C13.0297 10.2532 13.0696 10.3856 13.0649 10.5201C13.0603 10.6547 13.0112 10.784 12.9255 10.8878C12.2719 11.6907 11.4473 12.3377 10.5119 12.7814C9.57655 13.2252 8.55392 13.4546 7.51861 13.453C3.67678 13.453 0.564987 10.3578 0.564987 6.54433C0.564987 3.67421 2.32673 1.21244 4.83517 0.169066C4.96012 0.116257 5.09883 0.105418 5.23047 0.138178C5.36211 0.170937 5.47957 0.245526 5.5652 0.35074Z" fill="#90939E"/>
<path d="M9.56061 2.7428C9.57256 2.70671 9.59558 2.67531 9.6264 2.65305C9.65722 2.63079 9.69427 2.61881 9.73228 2.61881C9.7703 2.61881 9.80735 2.63079 9.83817 2.65305C9.86899 2.67531 9.89201 2.70671 9.90396 2.7428L10.2265 3.71118C10.3706 4.14286 10.709 4.48121 11.1407 4.62538L12.109 4.9479C12.1451 4.95985 12.1765 4.98287 12.1988 5.01368C12.2211 5.0445 12.233 5.08155 12.233 5.11957C12.233 5.15759 12.2211 5.19464 12.1988 5.22545C12.1765 5.25627 12.1451 5.27929 12.109 5.29124L11.1407 5.61376C10.9278 5.68469 10.7343 5.80423 10.5756 5.96292C10.4169 6.1216 10.2974 6.31506 10.2265 6.52796L9.90396 7.49634C9.89201 7.53243 9.86899 7.56383 9.83817 7.58609C9.80735 7.60835 9.7703 7.62033 9.73228 7.62033C9.69427 7.62033 9.65722 7.60835 9.6264 7.58609C9.59558 7.56383 9.57256 7.53243 9.56061 7.49634L9.2381 6.52796C9.16716 6.31506 9.04762 6.1216 8.88894 5.96292C8.73025 5.80423 8.5368 5.68469 8.32389 5.61376L7.35552 5.29124C7.31943 5.27929 7.28802 5.25627 7.26576 5.22545C7.2435 5.19464 7.23152 5.15759 7.23152 5.11957C7.23152 5.08155 7.2435 5.0445 7.26576 5.01368C7.28802 4.98287 7.31943 4.95985 7.35552 4.9479L8.32389 4.62538C8.5368 4.55445 8.73025 4.4349 8.88894 4.27622C9.04762 4.11754 9.16716 3.92408 9.2381 3.71118L9.56061 2.7428ZM12.1182 0.201861C12.1264 0.178132 12.1419 0.157556 12.1623 0.142993C12.1828 0.128431 12.2073 0.120605 12.2324 0.120605C12.2575 0.120605 12.282 0.128431 12.3025 0.142993C12.3229 0.157556 12.3383 0.178132 12.3466 0.201861L12.5616 0.846888C12.6574 1.13523 12.8832 1.36108 13.1716 1.45691L13.8166 1.67192C13.8404 1.68015 13.8609 1.69557 13.8755 1.71603C13.8901 1.73649 13.8979 1.76098 13.8979 1.78609C13.8979 1.81121 13.8901 1.8357 13.8755 1.85616C13.8609 1.87662 13.8404 1.89204 13.8166 1.90027L13.1716 2.11528C13.0295 2.16255 12.9004 2.24229 12.7945 2.34819C12.6886 2.45408 12.6088 2.5832 12.5616 2.7253L12.3466 3.37033C12.3383 3.39406 12.3229 3.41463 12.3025 3.4292C12.282 3.44376 12.2575 3.45158 12.2324 3.45158C12.2073 3.45158 12.1828 3.44376 12.1623 3.4292C12.1419 3.41463 12.1264 3.39406 12.1182 3.37033L11.9032 2.7253C11.8559 2.5832 11.7762 2.45408 11.6703 2.34819C11.5644 2.24229 11.4353 2.16255 11.2932 2.11528L10.6482 1.90027C10.6244 1.89204 10.6038 1.87662 10.5893 1.85616C10.5747 1.8357 10.5669 1.81121 10.5669 1.78609C10.5669 1.76098 10.5747 1.73649 10.5893 1.71603C10.6038 1.69557 10.6244 1.68015 10.6482 1.67192L11.2932 1.45691C11.5815 1.36108 11.8074 1.13523 11.9032 0.846888L12.1182 0.202694V0.201861Z" fill="#8B8B8B" fill-opacity="0.6"/>
</svg>
