<svg width="33" height="33" viewBox="0 0 33 33" fill="none" xmlns="http://www.w3.org/2000/svg">
<g filter="url(#filter0_bii_2576_6514)">
<path fill-rule="evenodd" clip-rule="evenodd" d="M6.68143 8.35425C4.76804 8.35425 3.21692 9.90536 3.21692 11.8188V29.1413C3.21692 31.0547 4.76804 32.6059 6.68143 32.6059H25.7363C27.6497 32.6059 29.2008 31.0547 29.2008 29.1413V11.8188C29.2008 9.90536 27.6497 8.35425 25.7363 8.35425H6.68143ZM19.6734 18.7478C19.6734 20.0302 18.9767 21.1498 17.9411 21.7488V23.9446C17.9411 24.9013 17.1656 25.6768 16.2088 25.6768C15.2522 25.6768 14.4766 24.9013 14.4766 23.9446V21.7488C13.441 21.1498 12.7443 20.0302 12.7443 18.7478C12.7443 16.8344 14.2955 15.2833 16.2088 15.2833C18.1222 15.2833 19.6734 16.8344 19.6734 18.7478Z" fill="url(#paint0_linear_2576_6514)"/>
</g>
<g filter="url(#filter1_ii_2576_6514)">
<path fill-rule="evenodd" clip-rule="evenodd" d="M19.8748 8.35435L23.5408 8.35435C23.5408 4.07503 20.2582 0.605957 16.2088 0.605957C12.1594 0.605956 8.87677 4.07503 8.87677 8.35435L12.5428 8.35435C12.5428 6.21469 14.1841 4.48015 16.2088 4.48015C18.2335 4.48015 19.8748 6.21469 19.8748 8.35435Z" fill="url(#paint1_linear_2576_6514)"/>
</g>
<defs>
<filter id="filter0_bii_2576_6514" x="-0.783081" y="4.35425" width="33.9839" height="32.2517" filterUnits="userSpaceOnUse" color-interpolation-filters="sRGB">
<feFlood flood-opacity="0" result="BackgroundImageFix"/>
<feGaussianBlur in="BackgroundImage" stdDeviation="2"/>
<feComposite in2="SourceAlpha" operator="in" result="effect1_backgroundBlur_2576_6514"/>
<feBlend mode="normal" in="SourceGraphic" in2="effect1_backgroundBlur_2576_6514" result="shape"/>
<feColorMatrix in="SourceAlpha" type="matrix" values="0 0 0 0 0 0 0 0 0 0 0 0 0 0 0 0 0 0 127 0" result="hardAlpha"/>
<feOffset/>
<feGaussianBlur stdDeviation="2"/>
<feComposite in2="hardAlpha" operator="arithmetic" k2="-1" k3="1"/>
<feColorMatrix type="matrix" values="0 0 0 0 1 0 0 0 0 1 0 0 0 0 1 0 0 0 1 0"/>
<feBlend mode="normal" in2="shape" result="effect2_innerShadow_2576_6514"/>
<feColorMatrix in="SourceAlpha" type="matrix" values="0 0 0 0 0 0 0 0 0 0 0 0 0 0 0 0 0 0 127 0" result="hardAlpha"/>
<feOffset dy="4"/>
<feGaussianBlur stdDeviation="4"/>
<feComposite in2="hardAlpha" operator="arithmetic" k2="-1" k3="1"/>
<feColorMatrix type="matrix" values="0 0 0 0 1 0 0 0 0 1 0 0 0 0 1 0 0 0 1 0"/>
<feBlend mode="normal" in2="effect2_innerShadow_2576_6514" result="effect3_innerShadow_2576_6514"/>
</filter>
<filter id="filter1_ii_2576_6514" x="8.87677" y="0.605957" width="14.6641" height="11.7483" filterUnits="userSpaceOnUse" color-interpolation-filters="sRGB">
<feFlood flood-opacity="0" result="BackgroundImageFix"/>
<feBlend mode="normal" in="SourceGraphic" in2="BackgroundImageFix" result="shape"/>
<feColorMatrix in="SourceAlpha" type="matrix" values="0 0 0 0 0 0 0 0 0 0 0 0 0 0 0 0 0 0 127 0" result="hardAlpha"/>
<feOffset/>
<feGaussianBlur stdDeviation="2"/>
<feComposite in2="hardAlpha" operator="arithmetic" k2="-1" k3="1"/>
<feColorMatrix type="matrix" values="0 0 0 0 1 0 0 0 0 1 0 0 0 0 1 0 0 0 1 0"/>
<feBlend mode="normal" in2="shape" result="effect1_innerShadow_2576_6514"/>
<feColorMatrix in="SourceAlpha" type="matrix" values="0 0 0 0 0 0 0 0 0 0 0 0 0 0 0 0 0 0 127 0" result="hardAlpha"/>
<feOffset dy="4"/>
<feGaussianBlur stdDeviation="4"/>
<feComposite in2="hardAlpha" operator="arithmetic" k2="-1" k3="1"/>
<feColorMatrix type="matrix" values="0 0 0 0 1 0 0 0 0 1 0 0 0 0 1 0 0 0 1 0"/>
<feBlend mode="normal" in2="effect1_innerShadow_2576_6514" result="effect2_innerShadow_2576_6514"/>
</filter>
<linearGradient id="paint0_linear_2576_6514" x1="-9.77501" y1="20.4801" x2="14.419" y2="46.4022" gradientUnits="userSpaceOnUse">
<stop stop-color="#FF92E2"/>
<stop offset="0.919792" stop-color="#932C6E"/>
</linearGradient>
<linearGradient id="paint1_linear_2576_6514" x1="1.54474" y1="4.48015" x2="7.94593" y2="16.5946" gradientUnits="userSpaceOnUse">
<stop stop-color="#FF92E2"/>
<stop offset="0.919792" stop-color="#932C6E"/>
</linearGradient>
</defs>
</svg>
