<svg width="33" height="33" viewBox="0 0 33 33" fill="none" xmlns="http://www.w3.org/2000/svg">
<g filter="url(#filter0_ii_2576_6506)">
<path d="M9.71252 9.38804C9.71252 12.9697 12.6272 15.8844 16.2088 15.8844C19.7905 15.8844 22.7052 12.9697 22.7052 9.38804C22.7052 5.8064 19.7905 2.89172 16.2088 2.89172C12.6272 2.89172 9.71252 5.8064 9.71252 9.38804Z" fill="url(#paint0_linear_2576_6506)"/>
<path d="M27.7579 30.3202C28.5552 30.3202 29.2015 29.6739 29.2015 28.8766C29.2015 23.3057 24.6671 18.7712 19.0961 18.7712H13.3216C7.74923 18.7712 3.21625 23.3057 3.21625 28.8766C3.21625 29.6739 3.86258 30.3202 4.65987 30.3202H27.7579Z" fill="url(#paint1_linear_2576_6506)"/>
</g>
<defs>
<filter id="filter0_ii_2576_6506" x="3.21625" y="2.89172" width="25.9853" height="31.4285" filterUnits="userSpaceOnUse" color-interpolation-filters="sRGB">
<feFlood flood-opacity="0" result="BackgroundImageFix"/>
<feBlend mode="normal" in="SourceGraphic" in2="BackgroundImageFix" result="shape"/>
<feColorMatrix in="SourceAlpha" type="matrix" values="0 0 0 0 0 0 0 0 0 0 0 0 0 0 0 0 0 0 127 0" result="hardAlpha"/>
<feOffset/>
<feGaussianBlur stdDeviation="2"/>
<feComposite in2="hardAlpha" operator="arithmetic" k2="-1" k3="1"/>
<feColorMatrix type="matrix" values="0 0 0 0 1 0 0 0 0 1 0 0 0 0 1 0 0 0 0.9 0"/>
<feBlend mode="normal" in2="shape" result="effect1_innerShadow_2576_6506"/>
<feColorMatrix in="SourceAlpha" type="matrix" values="0 0 0 0 0 0 0 0 0 0 0 0 0 0 0 0 0 0 127 0" result="hardAlpha"/>
<feOffset dy="4"/>
<feGaussianBlur stdDeviation="4"/>
<feComposite in2="hardAlpha" operator="arithmetic" k2="-1" k3="1"/>
<feColorMatrix type="matrix" values="0 0 0 0 1 0 0 0 0 1 0 0 0 0 1 0 0 0 0.4 0"/>
<feBlend mode="normal" in2="effect1_innerShadow_2576_6506" result="effect2_innerShadow_2576_6506"/>
</filter>
<linearGradient id="paint0_linear_2576_6506" x1="3.21621" y1="9.38804" x2="16.2088" y2="22.3807" gradientUnits="userSpaceOnUse">
<stop stop-color="#FF92E2"/>
<stop offset="0.919792" stop-color="#932C6E"/>
</linearGradient>
<linearGradient id="paint1_linear_2576_6506" x1="-9.77639" y1="24.5457" x2="-1.20393" y2="43.8338" gradientUnits="userSpaceOnUse">
<stop stop-color="#FF92E2"/>
<stop offset="0.919792" stop-color="#932C6E"/>
</linearGradient>
</defs>
</svg>
