<svg width="174" height="35" viewBox="0 0 174 35" fill="none" xmlns="http://www.w3.org/2000/svg">
<path d="M46.74 27.8085C45.2739 27.8025 43.8288 27.4598 42.5162 26.8067C41.2035 26.1537 40.0585 25.2078 39.1694 24.0421C38.2803 22.8764 37.671 21.5219 37.3884 20.0833C37.1057 18.6447 37.1574 17.1604 37.5394 15.745C37.9214 14.3295 38.6235 13.0207 39.5915 11.9197C40.5596 10.8186 41.7676 9.95466 43.1225 9.39452C44.4774 8.83437 45.9428 8.59297 47.4058 8.68901C48.8687 8.78505 50.29 9.21595 51.56 9.94841C52.9624 10.7429 54.1077 11.9229 54.86 13.3484L50.86 15.7084C50.4962 14.9663 49.9225 14.3473 49.21 13.9284C48.4533 13.4924 47.5933 13.2679 46.72 13.2784C46.0756 13.2585 45.4339 13.3715 44.8351 13.6107C44.2364 13.8499 43.6933 14.2099 43.24 14.6684C42.3518 15.6413 41.8594 16.911 41.8594 18.2284C41.8594 19.5457 42.3518 20.8156 43.24 21.7884C43.6953 22.2436 44.2389 22.6008 44.8373 22.8381C45.4358 23.0754 46.0765 23.1879 46.72 23.1684C47.6009 23.1841 48.4702 22.9668 49.24 22.5384C49.958 22.1356 50.5342 21.5209 50.89 20.7784L54.96 23.0984C54.1711 24.5407 52.993 25.7327 51.56 26.5384C50.1033 27.3857 48.4451 27.8245 46.76 27.8085H46.74Z" fill="#5C606B"/>
<path d="M66.9499 8.67847C67.8617 8.6457 68.7701 8.80706 69.6149 9.15186C70.4596 9.49665 71.2215 10.017 71.8499 10.6785C72.5305 11.4194 73.0577 12.2878 73.4009 13.2335C73.7442 14.1792 73.8968 15.1835 73.8499 16.1885V27.3085H69.0799V16.7685C69.1057 16.265 69.0305 15.7614 68.8588 15.2874C68.687 14.8134 68.4222 14.3786 68.0799 14.0085C67.7335 13.6704 67.3213 13.4071 66.8688 13.2351C66.4164 13.0631 65.9334 12.9859 65.4499 13.0085C64.9102 12.9805 64.3707 13.0677 63.8672 13.2643C63.3638 13.4608 62.9079 13.7622 62.5299 14.1485C61.7578 15.0871 61.3748 16.286 61.4599 17.4985V27.2785H56.7799V1.91846H61.4599V11.2485C62.5699 9.54847 64.3799 8.7085 66.8699 8.7085L66.9499 8.67847Z" fill="#5C606B"/>
<path d="M81.9299 27.2988H77.2499V9.17877H81.9299V27.2988ZM79.58 7.00879C78.8229 7.00103 78.099 6.69755 77.5627 6.16315C77.0264 5.62875 76.7204 4.90581 76.71 4.1488C76.7118 3.7757 76.7878 3.40668 76.9338 3.06329C77.0797 2.71991 77.2926 2.40905 77.5599 2.1488C77.8156 1.87412 78.1252 1.65506 78.4693 1.50537C78.8134 1.35568 79.1847 1.27858 79.5599 1.27881C79.9344 1.28377 80.3041 1.3632 80.6475 1.51257C80.9908 1.66195 81.301 1.87826 81.5599 2.1488C82.0963 2.67705 82.4019 3.39604 82.41 4.1488C82.3995 4.91098 82.0893 5.63835 81.5466 6.17358C81.0038 6.70882 80.2722 7.00886 79.5099 7.00879H79.58Z" fill="#5C606B"/>
<path d="M105.74 8.67862C106.669 8.62867 107.597 8.78176 108.461 9.12716C109.324 9.47257 110.102 10.002 110.74 10.6786C112.043 12.1781 112.713 14.1247 112.61 16.1086V27.2686H107.93V16.4386C107.989 15.5219 107.703 14.6162 107.13 13.8986C106.845 13.592 106.495 13.3522 106.106 13.1966C105.717 13.041 105.298 12.9734 104.88 12.9986C104.414 12.9736 103.948 13.0552 103.519 13.2371C103.089 13.4191 102.706 13.6966 102.4 14.0486C101.761 14.9135 101.446 15.9752 101.51 17.0486V27.2286H96.83V16.3986C96.884 15.4825 96.5992 14.5784 96.03 13.8586C95.7445 13.5519 95.3948 13.3122 95.0058 13.1566C94.6168 13.001 94.1982 12.9334 93.78 12.9586C93.3134 12.9371 92.8481 13.0213 92.4186 13.2048C91.9892 13.3883 91.6068 13.6666 91.2999 14.0186C90.6397 14.8745 90.3096 15.9394 90.3699 17.0186V27.1986H85.6899V9.08865H90.3699V11.0086C90.9232 10.2069 91.6743 9.56191 92.5504 9.13614C93.4265 8.71036 94.3977 8.51832 95.3699 8.57864C96.3547 8.51048 97.339 8.7187 98.2118 9.17984C99.0846 9.64098 99.8113 10.3367 100.31 11.1886C100.908 10.3246 101.72 9.63012 102.666 9.17276C103.613 8.7154 104.661 8.51075 105.71 8.57864L105.74 8.67862Z" fill="#5C606B"/>
<path d="M126.13 8.67841C127.042 8.64628 127.95 8.80795 128.795 9.15271C129.639 9.49747 130.401 10.0175 131.03 10.6784C131.711 11.4193 132.238 12.2877 132.581 13.2334C132.924 14.1791 133.077 15.1834 133.03 16.1884V27.3085H128.34V16.7684C128.366 16.2649 128.291 15.7613 128.119 15.2874C127.947 14.8134 127.682 14.3785 127.34 14.0084C126.994 13.6703 126.581 13.4071 126.129 13.235C125.676 13.063 125.193 12.9859 124.71 13.0084C124.17 12.9805 123.631 13.0677 123.127 13.2642C122.624 13.4608 122.168 13.7622 121.79 14.1484C121.018 15.0871 120.635 16.286 120.72 17.4984V27.2784H116.08V9.1684H120.76V11.1684C121.87 9.4684 123.67 8.62842 126.17 8.62842L126.13 8.67841Z" fill="#5C606B"/>
<path d="M140.31 16.5385H149.57C149.368 15.4691 148.794 14.5056 147.95 13.8186C147.126 13.1855 146.109 12.8537 145.07 12.8786C143.946 12.8457 142.845 13.1986 141.95 13.8786C141.108 14.5456 140.528 15.487 140.31 16.5385ZM154.07 20.1585H140.39C140.99 22.4285 142.7 23.5685 145.5 23.5685C146.274 23.6165 147.048 23.477 147.757 23.1619C148.465 22.8468 149.087 22.3654 149.57 21.7586L153.34 23.9286C152.465 25.1991 151.277 26.2232 149.892 26.9026C148.507 27.5821 146.97 27.8941 145.43 27.8086C144.105 27.8685 142.782 27.6582 141.54 27.1906C140.299 26.723 139.166 26.0078 138.21 25.0885C136.478 23.2361 135.514 20.7947 135.514 18.2586C135.514 15.7224 136.478 13.281 138.21 11.4286C139.105 10.5143 140.181 9.79725 141.369 9.32364C142.557 8.85004 143.832 8.63031 145.11 8.67856C146.34 8.62416 147.567 8.84254 148.703 9.31797C149.839 9.7934 150.855 10.5141 151.68 11.4286C153.418 13.2627 154.357 15.7123 154.29 18.2386C154.278 18.8822 154.218 19.5239 154.11 20.1585H154.07Z" fill="#5C606B"/>
<path d="M164.08 21.3587L168.08 9.17871H173.08L166.48 27.2988C165.8 29.5119 164.494 31.481 162.72 32.9687C161.033 34.1779 158.966 34.7357 156.9 34.5388V30.2487C157.962 30.3288 159.019 30.0467 159.9 29.4487C160.748 28.7531 161.367 27.8198 161.68 26.7687L154.24 9.2287H159.36L164.07 21.4088L164.08 21.3587Z" fill="#5C606B"/>
<path fill-rule="evenodd" clip-rule="evenodd" d="M4.01075 8.63879C3.97937 8.92335 3.88274 9.19683 3.72837 9.43793C3.574 9.67902 3.36605 9.88124 3.12073 10.0288C3.04474 10.0432 2.96675 10.0432 2.89075 10.0288C2.78508 10.0323 2.68183 9.99669 2.60074 9.92883L2.52073 9.86884C2.30914 9.61834 2.20177 9.29616 2.22074 8.96881C2.22074 8.96881 2.22074 8.88882 2.22074 8.84882C2.22153 8.51969 2.30648 8.19622 2.4675 7.90918C2.62853 7.62214 2.86029 7.38104 3.14075 7.2088C3.56075 7.0288 3.93075 7.31883 4.04075 7.85883C4.05157 7.97858 4.05157 8.09905 4.04075 8.21881C4.05547 8.34505 4.05547 8.47258 4.04075 8.59882L4.01075 8.63879ZM13.1207 1.28882L1.22074 6.36884C0.901371 6.57173 0.640898 6.85492 0.465399 7.19012C0.2899 7.52533 0.205534 7.90075 0.220739 8.27881V11.3588C0.220739 12.1788 0.660739 12.6788 1.22074 12.4688L13.1307 7.80884V1.27881L13.1207 1.28882Z" fill="#5C606B"/>
<path fill-rule="evenodd" clip-rule="evenodd" d="M7.14071 11.719L0.9107 14.099C0.687853 14.2344 0.505947 14.4278 0.384424 14.6585C0.262901 14.8892 0.206319 15.1486 0.220697 15.409V19.409C0.220697 19.989 0.5307 20.349 0.9107 20.219L7.14071 18.0689C7.37789 17.9348 7.57341 17.7377 7.70574 17.4995C7.83808 17.2613 7.90209 16.9912 7.89071 16.719V12.5689C7.89071 11.9189 7.55071 11.559 7.14071 11.719Z" fill="#5C606B"/>
<path fill-rule="evenodd" clip-rule="evenodd" d="M13.1306 9.42871V15.9587L11.0606 16.6687C10.4506 16.8787 9.96063 16.3487 9.96063 15.4787V12.2187C9.94572 11.817 10.0402 11.4187 10.2339 11.0665C10.4277 10.7142 10.7134 10.4212 11.0606 10.2187L13.1306 9.43866V9.42871Z" fill="#5C606B"/>
<path fill-rule="evenodd" clip-rule="evenodd" d="M4.01077 24.1188C3.9853 24.3934 3.89017 24.6568 3.73443 24.8843C3.57869 25.1118 3.36746 25.2958 3.12075 25.4189C3.0444 25.4287 2.96712 25.4287 2.89077 25.4189C2.78404 25.4029 2.68372 25.3579 2.60076 25.2889L2.52075 25.2188C2.31217 24.9588 2.20552 24.6318 2.22076 24.2989C2.22076 24.2989 2.22076 24.2189 2.22076 24.1789C2.21613 23.8595 2.29951 23.5449 2.46179 23.2697C2.62407 22.9945 2.859 22.7694 3.14077 22.6188C3.56077 22.4788 3.93077 22.7888 4.04077 23.3488C4.05159 23.4686 4.05159 23.5892 4.04077 23.7089C4.05549 23.8352 4.05549 23.9627 4.04077 24.0889L4.01077 24.1188ZM13.1208 17.5889L1.21075 21.5889C0.893424 21.7717 0.632356 22.038 0.45602 22.3589C0.279683 22.6799 0.194846 23.043 0.21075 23.4089V26.4988C0.21075 27.3188 0.65075 27.8589 1.21075 27.6889L13.1208 24.1088V17.5889Z" fill="#5C606B"/>
<g opacity="0.9">
<path fill-rule="evenodd" clip-rule="evenodd" d="M25.3307 21.6988L19.1108 19.5987C18.6908 19.4687 18.3608 19.8388 18.3608 20.4388V24.5888C18.343 24.858 18.4046 25.1265 18.5379 25.3611C18.6712 25.5957 18.8704 25.7861 19.1108 25.9087L25.3307 27.7787C25.7107 27.8887 26.0207 27.5188 26.0207 26.9388V22.9388C26.0363 22.6823 25.9799 22.4266 25.858 22.2005C25.7361 21.9743 25.5535 21.7867 25.3307 21.6587V21.6988Z" fill="#5C606B"/>
<path fill-rule="evenodd" clip-rule="evenodd" d="M13.1207 17.5889V24.1088L15.1907 24.7288C15.7907 24.9088 16.2907 24.3588 16.2907 23.4888V20.2789C16.3173 19.8753 16.2278 19.4725 16.0329 19.1182C15.838 18.7638 15.5458 18.4726 15.1907 18.2789L13.1207 17.5889Z" fill="#5C606B"/>
<path fill-rule="evenodd" clip-rule="evenodd" d="M23.7508 17.579C23.73 17.6048 23.7065 17.6282 23.6808 17.649C23.5963 17.7188 23.4903 17.7576 23.3807 17.759C23.3052 17.778 23.2262 17.778 23.1507 17.759C22.902 17.627 22.6897 17.4356 22.5327 17.2018C22.3757 16.9681 22.2788 16.6992 22.2508 16.419C22.2405 16.2925 22.2405 16.1655 22.2508 16.039C22.24 15.9226 22.24 15.8054 22.2508 15.689C22.3508 15.139 22.7207 14.829 23.1507 14.989C23.4307 15.1518 23.663 15.3853 23.8245 15.6661C23.9859 15.9469 24.0708 16.2651 24.0707 16.589V16.719C24.0769 17.0359 23.9626 17.3432 23.7508 17.579ZM21.1007 16.629L21.0207 16.699C20.9317 16.7676 20.8231 16.8062 20.7107 16.809C20.6352 16.8281 20.5562 16.8281 20.4807 16.809C20.2265 16.6754 20.0089 16.4816 19.8468 16.2445C19.6847 16.0074 19.583 15.7343 19.5508 15.449C19.5408 15.3192 19.5408 15.1888 19.5508 15.059C19.5399 14.9393 19.5399 14.8187 19.5508 14.699C19.6608 14.139 20.0407 13.829 20.4807 13.999C20.7667 14.1617 21.0044 14.3975 21.1695 14.6821C21.3347 14.9667 21.4214 15.29 21.4207 15.619C21.4253 15.6622 21.4253 15.7057 21.4207 15.749C21.4439 16.0829 21.3363 16.4129 21.1208 16.669L21.1007 16.629ZM25.0407 13.989L13.1307 9.43896V15.959L25.0407 20.079C25.5907 20.269 26.0407 19.759 26.0407 18.929V15.849C26.0642 15.4765 25.983 15.1049 25.8062 14.7762C25.6295 14.4475 25.3644 14.1749 25.0407 13.989Z" fill="#5C606B"/>
<path fill-rule="evenodd" clip-rule="evenodd" d="M25.3308 6.49857L19.1108 3.8386C18.6908 3.6686 18.3608 4.00863 18.3608 4.61863V8.76859C18.3483 9.0451 18.4116 9.31977 18.5437 9.56297C18.6759 9.80616 18.872 10.0087 19.1108 10.1486L25.3308 12.5786C25.7108 12.7286 26.0208 12.3786 26.0208 11.7986V7.79862C26.0253 7.54124 25.9643 7.28693 25.8436 7.05955C25.723 6.83217 25.5465 6.6391 25.3308 6.49857Z" fill="#5C606B"/>
<path fill-rule="evenodd" clip-rule="evenodd" d="M13.1207 1.27881V7.79883L15.1907 8.60883C15.7907 8.84883 16.2907 8.33881 16.2907 7.46881V4.19879C16.2934 3.79924 16.1937 3.4057 16.0011 3.0556C15.8086 2.7055 15.5296 2.41051 15.1907 2.19879L13.1207 1.27881Z" fill="#5C606B"/>
</g>
</svg>
